# xmcd CD database file
#
# Track frame offsets:
#	150
#	19797
#	38171
#	59926
#	91430
#	112001
#	133200
#	154764
#	169504
#	186031
#	198298
#	212626
#	229088
#	243919
#
# Disc length: 3462 seconds
#
# Revision: 0
# Processed by: cddbd v1.4PL0 Copyright (c) Steve Scherf et al.
# Submitted via: CDex 1.50
#
DISCID=c20d840e
DTITLE=Willie Nelson - Across the Boarderline
DYEAR=1900
DGENRE=Country
TTITLE0=American Tune
TTITLE1=Getting Over You
TTITLE2=The Most Unorigional Sin
TTITLE3=Don't Give Up
TTITLE4=Heartland
TTITLE5=Across the Boarderline
TTITLE6=Graceland
TTITLE7=Father Down the Line
TTITLE8=Valentine
TTITLE9=What Was It You Wanted
TTITLE10=I Love The Life I Live
TTITLE11=If I Were The Man You Wanted
TTITLE12=She's Not For You
TTITLE13=Still Is Still Moving To Me
EXTD=
EXTT0=
EXTT1=
EXTT2=
EXTT3=
EXTT4=
EXTT5=
EXTT6=
EXTT7=
EXTT8=
EXTT9=
EXTT10=
EXTT11=
EXTT12=
EXTT13=
PLAYORDER=
